<svg xmlns="http://www.w3.org/2000/svg" style="display:none">
  <symbol id="github" viewBox="0 0 24 24" aria-label="GitHub icon">
    <path fill="currentColor" d="M12 .5C5.65.5.5 5.65.5 12A11.5 11.5 0 0 0 8.3 23.14c.59.1.8-.26.8-.58v-2.1c-3.39.74-4.1-1.64-4.1-1.64-.54-1.37-1.32-1.74-1.32-1.74-1.08-.73.08-.72.08-.72 1.2.08 1.83 1.23 1.83 1.23 1.06 1.83 2.78 1.3 3.45.99.1-.77.42-1.3.76-1.6-2.7-.31-5.54-1.35-5.54-6a4.7 4.7 0 0 1 1.26-3.25 4.3 4.3 0 0 1 .12-3.2s1.02-.33 3.34 1.24a11.4 11.4 0 0 1 6.08 0c2.32-1.57 3.34-1.24 3.34-1.24a4.3 4.3 0 0 1 .12 3.2 4.7 4.7 0 0 1 1.26 3.25c0 4.67-2.85 5.68-5.56 5.98.43.37.82 1.1.82 2.22v3.28c0 .32.21.69.81.58A11.5 11.5 0 0 0 23.5 12C23.5 5.65 18.35.5 12 .5Z"/>
  </symbol>
  <symbol id="codecademy" viewBox="0 0 24 24" aria-label="Codecademy icon">
    <rect x="2.5" y="2.5" width="19" height="19" rx="4" ry="4" fill="none" stroke="currentColor" stroke-width="2"/>
    <path fill="currentColor" d="M8.2 8.3h2.1v1.5H9.4c-.8 0-1.1.4-1.1 1.1v2.1c0 .7.3 1.1 1.1 1.1h.9v1.5H8.2c-1.7 0-2.7-1-2.7-2.6v-2.8c0-1.6 1-2.9 2.7-2.9Zm7.7 0c1.7 0 2.7 1.3 2.7 2.9v2.8c0 1.6-1 2.6-2.7 2.6h-2.7V8.3h2.7Zm-.2 1.5h-.6v4.4h.6c.8 0 1.1-.4 1.1-1.1v-2.2c0-.7-.3-1.1-1.1-1.1Z"/>
  </symbol>
</svg>




